<svg width="90" height="74" viewBox="0 0 90 74" fill="none" xmlns="http://www.w3.org/2000/svg">
<path fill-rule="evenodd" clip-rule="evenodd" d="M71.3343 37.1398L69.4993 38.3098C66.1895 40.4162 62.1861 41.1421 58.3474 40.3317C54.5088 39.5214 51.1404 37.2393 48.9643 33.9748L44.9993 28.0248L41.0343 33.9748C38.8583 37.2393 35.4899 39.5214 31.6513 40.3317C27.8126 41.1421 23.8092 40.4162 20.4993 38.3098L18.6643 37.1398L22.7093 52.4998H67.2893L71.3343 37.1398ZM13.2693 21.8498C9.42935 19.4098 4.58935 22.9448 5.74935 27.3448L14.0193 58.7698C14.2997 59.8375 14.9256 60.7824 15.7993 61.4571C16.673 62.1318 17.7454 62.4985 18.8493 62.4998H71.1393C72.2434 62.4999 73.3165 62.1345 74.1912 61.4606C75.0658 60.7868 75.6928 59.8424 75.9743 58.7748L84.2443 27.3448C85.4043 22.9448 80.5643 19.4098 76.7243 21.8498L64.1243 29.8698C63.0211 30.5719 61.6866 30.8139 60.407 30.5438C59.1275 30.2737 58.0047 29.513 57.2793 28.4248L49.1543 16.2398C48.6977 15.555 48.0791 14.9935 47.3534 14.6052C46.6277 14.2169 45.8174 14.0137 44.9943 14.0137C44.1713 14.0137 43.3609 14.2169 42.6353 14.6052C41.9096 14.9935 41.291 15.555 40.8343 16.2398L32.7143 28.4248C31.9898 29.5138 30.8673 30.2755 29.5877 30.5466C28.3081 30.8176 26.9732 30.5765 25.8693 29.8748L13.2693 21.8498Z" fill="#FFD600"/>
<path d="M50 5C50 6.32608 49.4732 7.59785 48.5355 8.53553C47.5979 9.47321 46.3261 10 45 10C43.6739 10 42.4021 9.47321 41.4645 8.53553C40.5268 7.59785 40 6.32608 40 5C40 3.67392 40.5268 2.40215 41.4645 1.46447C42.4021 0.526784 43.6739 0 45 0C46.3261 0 47.5979 0.526784 48.5355 1.46447C49.4732 2.40215 50 3.67392 50 5ZM90 15C90 16.3261 89.4732 17.5979 88.5355 18.5355C87.5979 19.4732 86.3261 20 85 20C83.6739 20 82.4021 19.4732 81.4645 18.5355C80.5268 17.5979 80 16.3261 80 15C80 13.6739 80.5268 12.4021 81.4645 11.4645C82.4021 10.5268 83.6739 10 85 10C86.3261 10 87.5979 10.5268 88.5355 11.4645C89.4732 12.4021 90 13.6739 90 15ZM10 15C10 16.3261 9.47322 17.5979 8.53553 18.5355C7.59785 19.4732 6.32608 20 5 20C3.67392 20 2.40215 19.4732 1.46447 18.5355C0.526784 17.5979 0 16.3261 0 15C0 13.6739 0.526784 12.4021 1.46447 11.4645C2.40215 10.5268 3.67392 10 5 10C6.32608 10 7.59785 10.5268 8.53553 11.4645C9.47322 12.4021 10 13.6739 10 15Z" fill="#FFD600"/>
<path fill-rule="evenodd" clip-rule="evenodd" d="M17.5 68.75C17.5 67.4239 18.0268 66.1521 18.9645 65.2145C19.9021 64.2768 21.1739 63.75 22.5 63.75H68.755C70.0811 63.75 71.3529 64.2768 72.2905 65.2145C73.2282 66.1521 73.755 67.4239 73.755 68.75C73.755 70.0761 73.2282 71.3479 72.2905 72.2855C71.3529 73.2232 70.0811 73.75 68.755 73.75H22.5C21.1739 73.75 19.9021 73.2232 18.9645 72.2855C18.0268 71.3479 17.5 70.0761 17.5 68.75Z" fill="#FFD600"/>
</svg>
