<svg width="125" height="63" viewBox="0 0 125 63" fill="none" xmlns="http://www.w3.org/2000/svg">
<path d="M4.56316 57V5.45922H24.8976C28.79 5.45922 32.112 6.15549 34.8635 7.54803C37.6318 8.9238 39.7374 10.8784 41.1803 13.4118C42.6399 15.9284 43.3697 18.8897 43.3697 22.2955C43.3697 25.7182 42.6315 28.6626 41.1551 31.1289C39.6787 33.5785 37.5395 35.4576 34.7377 36.7662C31.9526 38.0749 28.5803 38.7292 24.6208 38.7292H11.0058V29.9713H22.8591C24.9396 29.9713 26.6676 29.6861 28.0434 29.1156C29.4192 28.5452 30.4426 27.6895 31.1137 26.5487C31.8016 25.4078 32.1455 23.9901 32.1455 22.2955C32.1455 20.5842 31.8016 19.1414 31.1137 17.9669C30.4426 16.7925 29.4108 15.9033 28.0182 15.2993C26.6425 14.6785 24.906 14.3681 22.8088 14.3681H15.4602V57H4.56316ZM32.3972 33.5449L45.2069 57H33.1774L20.6445 33.5449H32.3972Z" fill="#039900"/>
<path d="M47.5723 57.1619C45.9594 57.1619 44.522 56.8821 43.2602 56.3225C41.9984 55.7519 40.9999 54.9126 40.2648 53.8044C39.5406 52.6852 39.1786 51.2918 39.1786 49.624C39.1786 48.2195 39.4364 47.04 39.9521 46.0855C40.4678 45.1309 41.17 44.3628 42.0587 43.7813C42.9475 43.1998 43.9569 42.7609 45.0871 42.4646C46.2282 42.1684 47.4241 41.9599 48.675 41.8392C50.1452 41.6856 51.3302 41.543 52.2299 41.4113C53.1297 41.2687 53.7825 41.0602 54.1885 40.7859C54.5944 40.5116 54.7974 40.1056 54.7974 39.568V39.4692C54.7974 38.4269 54.4683 37.6204 53.8099 37.0499C53.1626 36.4793 52.2409 36.1941 51.0449 36.1941C49.7831 36.1941 48.7792 36.4738 48.0331 37.0334C47.287 37.582 46.7932 38.2733 46.5518 39.1072L40.0673 38.5805C40.3965 37.0444 41.0438 35.7168 42.0094 34.5976C42.9749 33.4675 44.2203 32.6007 45.7454 31.9972C47.2815 31.3828 49.059 31.0755 51.0779 31.0755C52.4823 31.0755 53.8264 31.2401 55.1101 31.5693C56.4048 31.8985 57.5514 32.4087 58.5499 33.0999C59.5593 33.7912 60.3548 34.6799 60.9364 35.7661C61.5179 36.8414 61.8086 38.1306 61.8086 39.6338V56.6846H55.1595V53.179H54.962C54.556 53.969 54.0129 54.6657 53.3326 55.2692C52.6524 55.8617 51.8349 56.328 50.8804 56.6681C49.9258 56.9973 48.8231 57.1619 47.5723 57.1619ZM49.5802 52.3231C50.6115 52.3231 51.5222 52.1202 52.3122 51.7142C53.1022 51.2972 53.7222 50.7377 54.172 50.0354C54.6219 49.3332 54.8468 48.5377 54.8468 47.649V44.9663C54.6274 45.1089 54.3256 45.2406 53.9416 45.3613C53.5685 45.471 53.1461 45.5753 52.6743 45.674C52.2025 45.7618 51.7307 45.8441 51.2589 45.9209C50.7871 45.9867 50.3592 46.0471 49.9752 46.1019C49.1522 46.2226 48.4336 46.4146 47.8191 46.678C47.2047 46.9413 46.7274 47.2979 46.3873 47.7477C46.0471 48.1866 45.8771 48.7352 45.8771 49.3936C45.8771 50.3481 46.2227 51.0778 46.9139 51.5825C47.6161 52.0763 48.5049 52.3231 49.5802 52.3231Z" fill="#039900"/>
<path d="M85.4612 56.6846V52.5042L97.8378 37.1815V37.0005H85.8891V31.4047H106.281V35.9636L94.6613 50.9077V51.0888H106.709V56.6846H85.4612Z" fill="#039900"/>
<ellipse cx="73.092" cy="10.4282" rx="3.70771" ry="3.93945" fill="#039900"/>
<path d="M74.9824 19.5782L71.0924 19.6252M67.364 51.0116L67.321 48.2431L79.3692 48.1153L79.4146 50.8832L67.364 51.0116ZM64.1748 30.6312L64.1313 27.8632L79.0555 27.7042L79.0989 30.4722L64.1748 30.6312ZM70.8353 40.7688L70.7918 38.0008L79.2111 37.9111L79.2545 40.6791L70.8353 40.7688ZM67.4022 35.7079L67.3593 32.9394L79.1301 32.814L79.1735 35.582L67.4022 35.7079ZM69.9555 45.8723L69.9115 43.1038L79.292 43.0038L79.3349 45.7723L69.9555 45.8723ZM66.9718 25.5039L72.9942 16.6847L79.0195 25.3756L66.9718 25.5039Z" stroke="black" stroke-width="1.39039" stroke-linecap="round" stroke-linejoin="round"/>
<rect x="34.161" y="53.2983" width="12.5135" height="3.70771" fill="#039900"/>
<path d="M55.4803 52.835H106.461V56.5427H55.4803V52.835Z" fill="#039900"/>
</svg>
