<svg width="62" height="53" viewBox="0 0 62 53" fill="none" xmlns="http://www.w3.org/2000/svg">
<path fill-rule="evenodd" clip-rule="evenodd" d="M0 4.41667C0 3.24529 0.465326 2.1219 1.29361 1.29361C2.1219 0.465327 3.24529 0 4.41667 0H57.4167C58.588 0 59.7114 0.465327 60.5397 1.29361C61.368 2.1219 61.8333 3.24529 61.8333 4.41667C61.8333 5.58804 61.368 6.71143 60.5397 7.53972C59.7114 8.36801 58.588 8.83333 57.4167 8.83333H4.41667C3.24529 8.83333 2.1219 8.36801 1.29361 7.53972C0.465326 6.71143 0 5.58804 0 4.41667ZM0 26.5C0 25.3286 0.465326 24.2052 1.29361 23.3769C2.1219 22.5487 3.24529 22.0833 4.41667 22.0833H57.4167C58.588 22.0833 59.7114 22.5487 60.5397 23.3769C61.368 24.2052 61.8333 25.3286 61.8333 26.5C61.8333 27.6714 61.368 28.7948 60.5397 29.6231C59.7114 30.4513 58.588 30.9167 57.4167 30.9167H4.41667C3.24529 30.9167 2.1219 30.4513 1.29361 29.6231C0.465326 28.7948 0 27.6714 0 26.5ZM0 48.5833C0 47.412 0.465326 46.2886 1.29361 45.4603C2.1219 44.632 3.24529 44.1667 4.41667 44.1667H57.4167C58.588 44.1667 59.7114 44.632 60.5397 45.4603C61.368 46.2886 61.8333 47.412 61.8333 48.5833C61.8333 49.7547 61.368 50.8781 60.5397 51.7064C59.7114 52.5347 58.588 53 57.4167 53H4.41667C3.24529 53 2.1219 52.5347 1.29361 51.7064C0.465326 50.8781 0 49.7547 0 48.5833Z" fill="#039900"/>
</svg>
